<svg class="nav-icon" viewBox="0 0 20 20" fill="none" xmlns="http://www.w3.org/2000/svg">
  <path d="M13.3333 15.8333C13.3333 16.4963 13.5967 17.1322 14.0656 17.6011C14.5344 18.0699 15.1703 18.3333 15.8333 18.3333C16.4964 18.3333 17.1323 18.0699 17.6011 17.6011C18.0699 17.1322 18.3333 16.4963 18.3333 15.8333C18.3333 15.1703 18.0699 14.5344 17.6011 14.0655C17.1323 13.5967 16.4964 13.3333 15.8333 13.3333C15.1703 13.3333 14.5344 13.5967 14.0656 14.0655C13.5967 14.5344 13.3333 15.1703 13.3333 15.8333Z" />
  <path d="M10 15.8333H4.16667C3.72464 15.8333 3.30072 15.6577 2.98816 15.3451C2.67559 15.0326 2.5 14.6087 2.5 14.1666V5.83329M2.5 5.83329C2.5 5.39127 2.67559 4.96734 2.98816 4.65478C3.30072 4.34222 3.72464 4.16663 4.16667 4.16663H15.8333C16.2754 4.16663 16.6993 4.34222 17.0118 4.65478C17.3244 4.96734 17.5 5.39127 17.5 5.83329M2.5 5.83329L10 10.8333L17.5 5.83329M17.5 5.83329V9.99996M13.3333 15.8333C13.3333 16.4963 13.5967 17.1322 14.0656 17.6011C14.5344 18.0699 15.1703 18.3333 15.8333 18.3333C16.4964 18.3333 17.1323 18.0699 17.6011 17.6011C18.0699 17.1322 18.3333 16.4963 18.3333 15.8333C18.3333 15.1703 18.0699 14.5344 17.6011 14.0655C17.1323 13.5967 16.4964 13.3333 15.8333 13.3333C15.1703 13.3333 14.5344 13.5967 14.0656 14.0655C13.5967 14.5344 13.3333 15.1703 13.3333 15.8333Z" stroke-width="1.6" stroke-linecap="round" stroke-linejoin="round"/>
</svg>

